<?xml version="1.0" encoding="iso-8859-1"?>
<!-- Generator: Adobe Illustrator 15.1.0, SVG Export Plug-In . SVG Version: 6.00 Build 0)  -->
<!DOCTYPE svg PUBLIC "-//W3C//DTD SVG 1.1//EN" "http://www.w3.org/Graphics/SVG/1.1/DTD/svg11.dtd">
<svg version="1.1" id="Layer_1" xmlns="http://www.w3.org/2000/svg" xmlns:xlink="http://www.w3.org/1999/xlink" x="0px" y="0px"
	 width="350px" height="270px" viewBox="0 0 350 155" style="enable-background:new 0 0 350 270;" xml:space="preserve">
<g>
	<g>
		<path style="fill:#1D0D5C;" d="M61.016,244.591v-22.766l-9.4,17.241h-2.764l-9.445-17.241v22.766h-4.987V212.96h5.343
			l10.473,19.334l10.469-19.334h5.343v31.631H61.016z"/>
		<path style="fill:#1D0D5C;" d="M95.228,244.815c-2.257,0-4.313-0.454-6.168-1.361c-1.856-0.908-3.453-2.107-4.788-3.609
			c-1.336-1.5-2.371-3.213-3.099-5.143c-0.728-1.932-1.091-3.906-1.091-5.927c0-2.109,0.386-4.127,1.157-6.059
			c0.774-1.929,1.835-3.638,3.188-5.124c1.349-1.482,2.956-2.667,4.808-3.54c1.858-0.877,3.887-1.314,6.084-1.314
			c2.255,0,4.311,0.466,6.169,1.402c1.858,0.936,3.448,2.16,4.769,3.675c1.321,1.515,2.347,3.229,3.072,5.146
			c0.728,1.916,1.094,3.87,1.094,5.858c0,2.109-0.38,4.129-1.137,6.058c-0.756,1.93-1.819,3.632-3.185,5.102
			c-1.369,1.471-2.98,2.645-4.836,3.52C99.409,244.376,97.398,244.815,95.228,244.815z M85.159,228.774
			c0,1.486,0.239,2.925,0.715,4.323c0.474,1.396,1.15,2.629,2.025,3.698c0.877,1.067,1.939,1.923,3.187,2.559
			c1.247,0.642,2.645,0.961,4.186,0.961c1.603,0,3.021-0.335,4.256-1.005c1.234-0.667,2.277-1.55,3.139-2.649
			c0.863-1.099,1.517-2.33,1.962-3.7c0.445-1.365,0.667-2.759,0.667-4.186c0-1.513-0.237-2.962-0.711-4.341
			c-0.474-1.384-1.151-2.601-2.028-3.657c-0.875-1.053-1.932-1.899-3.16-2.541c-1.234-0.633-2.608-0.957-4.125-0.957
			c-1.602,0-3.029,0.337-4.276,1.006c-1.247,0.666-2.301,1.537-3.162,2.604c-0.86,1.067-1.522,2.295-1.984,3.675
			C85.388,225.945,85.159,227.347,85.159,228.774z"/>
		<path style="fill:#1D0D5C;" d="M129.491,222.315v22.276h-4.989V212.96h3.92l18.089,22.809v-22.766h5.033v31.588H147.4
			L129.491,222.315z"/>
		<path style="fill:#1D0D5C;" d="M186.291,220.4c-0.297-0.327-0.728-0.676-1.292-1.048c-0.563-0.37-1.225-0.719-1.98-1.046
			s-1.588-0.595-2.496-0.801c-0.907-0.208-1.833-0.311-2.784-0.311c-2.107,0-3.662,0.384-4.656,1.157
			c-0.995,0.772-1.492,1.839-1.492,3.207c0,0.775,0.155,1.404,0.468,1.896c0.313,0.488,0.795,0.919,1.447,1.289
			c0.654,0.374,1.472,0.701,2.451,0.983c0.98,0.282,2.123,0.584,3.43,0.912c1.604,0.386,3.054,0.815,4.345,1.292
			c1.293,0.474,2.384,1.054,3.274,1.737c0.889,0.683,1.583,1.521,2.072,2.516c0.489,0.998,0.732,2.208,0.732,3.632
			c0,1.605-0.302,2.984-0.911,4.146c-0.61,1.157-1.443,2.101-2.496,2.827c-1.053,0.728-2.279,1.263-3.673,1.604
			c-1.398,0.342-2.896,0.511-4.501,0.511c-2.408,0-4.73-0.364-6.972-1.092c-2.243-0.728-4.27-1.788-6.081-3.185l2.273-4.276
			c0.384,0.384,0.94,0.816,1.668,1.292c0.728,0.474,1.574,0.912,2.541,1.312c0.966,0.4,2.013,0.744,3.142,1.026
			s2.302,0.423,3.519,0.423c1.959,0,3.477-0.341,4.545-1.024s1.604-1.693,1.604-3.029c0-0.803-0.199-1.472-0.6-2.003
			c-0.405-0.536-0.976-1.006-1.717-1.407c-0.745-0.4-1.648-0.764-2.72-1.091c-1.068-0.327-2.286-0.667-3.652-1.024
			c-1.576-0.417-2.945-0.853-4.121-1.314c-1.175-0.46-2.146-1.016-2.917-1.67c-0.772-0.652-1.361-1.418-1.76-2.295
			c-0.402-0.877-0.603-1.938-0.603-3.185c0-1.545,0.296-2.919,0.892-4.125c0.594-1.2,1.404-2.209,2.428-3.027
			c1.024-0.816,2.234-1.433,3.632-1.85c1.396-0.413,2.909-0.621,4.544-0.621c2.138,0,4.111,0.339,5.924,1.022
			c1.811,0.683,3.4,1.531,4.767,2.541L186.291,220.4z"/>
		<path style="fill:#1D0D5C;" d="M216.854,244.815c-2.259,0-4.315-0.454-6.171-1.361s-3.45-2.107-4.787-3.609
			c-1.336-1.5-2.371-3.213-3.097-5.143c-0.729-1.932-1.091-3.906-1.091-5.927c0-2.109,0.386-4.127,1.154-6.059
			c0.776-1.929,1.836-3.638,3.188-5.124c1.352-1.482,2.956-2.667,4.81-3.54c1.857-0.877,3.886-1.314,6.085-1.314
			c2.253,0,4.312,0.466,6.169,1.402c1.856,0.936,3.446,2.16,4.766,3.675c1.323,1.515,2.348,3.229,3.074,5.146
			c0.729,1.916,1.093,3.87,1.093,5.858c0,2.109-0.38,4.129-1.137,6.058c-0.757,1.93-1.819,3.632-3.186,5.102
			c-1.369,1.471-2.978,2.645-4.835,3.52C221.036,244.376,219.022,244.815,216.854,244.815z M206.784,228.774
			c0,1.486,0.241,2.925,0.715,4.323c0.475,1.396,1.153,2.629,2.028,3.698c0.874,1.067,1.937,1.923,3.187,2.559
			c1.244,0.642,2.642,0.961,4.184,0.961c1.604,0,3.025-0.335,4.255-1.005c1.235-0.667,2.28-1.55,3.143-2.649
			c0.862-1.099,1.515-2.33,1.96-3.7c0.448-1.365,0.669-2.759,0.669-4.186c0-1.513-0.239-2.962-0.714-4.341
			c-0.475-1.384-1.149-2.601-2.028-3.657c-0.874-1.053-1.93-1.899-3.159-2.541c-1.234-0.633-2.608-0.957-4.125-0.957
			c-1.601,0-3.028,0.337-4.275,1.006c-1.245,0.666-2.303,1.537-3.161,2.604c-0.862,1.067-1.524,2.295-1.984,3.675
			C207.015,225.945,206.784,227.347,206.784,228.774z"/>
		<path style="fill:#1D0D5C;" d="M259.266,244.815c-2.257,0-4.313-0.454-6.169-1.361s-3.45-2.107-4.787-3.609
			c-1.337-1.5-2.371-3.213-3.099-5.143c-0.728-1.932-1.092-3.906-1.092-5.927c0-2.109,0.387-4.127,1.156-6.059
			c0.775-1.929,1.837-3.638,3.189-5.124c1.351-1.482,2.955-2.667,4.81-3.54c1.857-0.877,3.885-1.314,6.083-1.314
			c2.255,0,4.311,0.466,6.171,1.402c1.855,0.936,3.446,2.16,4.767,3.675c1.319,1.515,2.347,3.229,3.074,5.146
			c0.726,1.916,1.091,3.87,1.091,5.858c0,2.109-0.38,4.129-1.137,6.058c-0.756,1.93-1.819,3.632-3.184,5.102
			c-1.371,1.471-2.981,2.645-4.837,3.52C263.447,244.376,261.436,244.815,259.266,244.815z M249.196,228.774
			c0,1.486,0.239,2.925,0.715,4.323c0.475,1.396,1.153,2.629,2.026,3.698c0.877,1.067,1.939,1.923,3.187,2.559
			c1.246,0.642,2.646,0.961,4.187,0.961c1.604,0,3.022-0.335,4.255-1.005c1.235-0.667,2.279-1.55,3.14-2.649
			c0.862-1.099,1.517-2.33,1.962-3.7c0.446-1.365,0.666-2.759,0.666-4.186c0-1.513-0.236-2.962-0.71-4.341
			c-0.476-1.384-1.152-2.601-2.028-3.657c-0.875-1.053-1.93-1.899-3.16-2.541c-1.234-0.633-2.608-0.957-4.124-0.957
			c-1.602,0-3.029,0.337-4.276,1.006c-1.245,0.666-2.302,1.537-3.16,2.604c-0.863,1.067-1.525,2.295-1.984,3.675
			C249.426,225.945,249.196,227.347,249.196,228.774z"/>
		<path style="fill:#1D0D5C;" d="M293.529,222.315v22.276h-4.99V212.96h3.92l18.09,22.809v-22.766h5.031v31.588h-4.143
			L293.529,222.315z"/>
	</g>
</g>
<g>
	<g>
		<g>
			<linearGradient id="SVGID_1_" gradientUnits="userSpaceOnUse" x1="101.9565" y1="63.2065" x2="101.9565" y2="202.7697">
				<stop  offset="0" style="stop-color:#916CBF"/>
				<stop  offset="1" style="stop-color:#649CD9"/>
			</linearGradient>
			<path style="fill:url(#SVGID_1_);" d="M103.548,171.179c-6.577,0-13.19-2.196-18.643-6.704
				c-6.04-4.992-9.774-12.036-10.518-19.835c-0.74-7.795,1.598-15.411,6.59-21.449c1.059-1.284,2.959-1.463,4.243-0.403
				c1.284,1.061,1.463,2.958,0.402,4.242c-3.963,4.797-5.821,10.849-5.232,17.042c0.589,6.197,3.554,11.792,8.356,15.759
				c9.895,8.176,24.607,6.775,32.792-3.125c0.95-1.151,1.778-2.373,2.465-3.626c0.795-1.461,2.624-2.007,4.087-1.204
				c1.459,0.797,1.999,2.629,1.202,4.088c-0.867,1.59-1.911,3.131-3.104,4.576C120.393,167.551,112,171.179,103.548,171.179z"/>
		</g>
		<g>
			<linearGradient id="SVGID_2_" gradientUnits="userSpaceOnUse" x1="116.3174" y1="63.2051" x2="116.3174" y2="202.7725">
				<stop  offset="0" style="stop-color:#916CBF"/>
				<stop  offset="1" style="stop-color:#649CD9"/>
			</linearGradient>
			<path style="fill:url(#SVGID_2_);" d="M95.011,113.944c-0.815,0-1.631-0.332-2.224-0.981C78.9,97.784,78.965,74.073,92.94,58.981
				c14.929-16.119,40.195-17.088,56.313-2.163c1.22,1.13,1.294,3.037,0.164,4.26c-1.134,1.22-3.042,1.292-4.259,0.162
				c-13.683-12.669-35.128-11.847-47.795,1.837c-11.861,12.812-11.918,32.937-0.128,45.818c1.122,1.228,1.038,3.135-0.188,4.255
				C96.466,113.682,95.738,113.944,95.011,113.944z"/>
		</g>
		<g>
			<linearGradient id="SVGID_3_" gradientUnits="userSpaceOnUse" x1="161.6187" y1="63.207" x2="161.6187" y2="202.7715">
				<stop  offset="0" style="stop-color:#916CBF"/>
				<stop  offset="1" style="stop-color:#649CD9"/>
			</linearGradient>
			<path style="fill:url(#SVGID_3_);" d="M180.222,148.609c-0.77,0-1.542-0.294-2.132-0.883l-37.208-37.213
				c-1.177-1.177-1.177-3.082,0-4.26c1.177-1.177,3.083-1.177,4.26,0l37.213,37.208c1.178,1.177,1.178,3.087,0,4.264
				C181.767,148.315,180.993,148.609,180.222,148.609z"/>
		</g>
		<g>
			<linearGradient id="SVGID_4_" gradientUnits="userSpaceOnUse" x1="169.2134" y1="63.2017" x2="169.2134" y2="202.7726">
				<stop  offset="0" style="stop-color:#916CBF"/>
				<stop  offset="1" style="stop-color:#649CD9"/>
			</linearGradient>
			<path style="fill:url(#SVGID_4_);" d="M181.275,180.922c-0.769,0-1.541-0.294-2.13-0.883l-24.125-24.125
				c-1.178-1.177-1.178-3.086,0-4.264c1.177-1.177,3.084-1.177,4.261,0l24.125,24.127c1.177,1.177,1.177,3.084,0,4.262
				C182.817,180.628,182.048,180.922,181.275,180.922z"/>
		</g>
		<g>
			<linearGradient id="SVGID_5_" gradientUnits="userSpaceOnUse" x1="214.2607" y1="63.2065" x2="214.2607" y2="202.7699">
				<stop  offset="0" style="stop-color:#916CBF"/>
				<stop  offset="1" style="stop-color:#649CD9"/>
			</linearGradient>
			<path style="fill:url(#SVGID_5_);" d="M240.113,177.245c-0.769,0-1.542-0.294-2.13-0.883l-51.709-51.702
				c-1.177-1.177-1.177-3.084,0-4.262c1.178-1.178,3.084-1.178,4.262,0l51.711,51.705c1.177,1.177,1.177,3.082,0,4.259
				C241.658,176.951,240.885,177.245,240.113,177.245z"/>
		</g>
		<g>
			<linearGradient id="SVGID_6_" gradientUnits="userSpaceOnUse" x1="130.3618" y1="63.2061" x2="130.3618" y2="202.7722">
				<stop  offset="0" style="stop-color:#916CBF"/>
				<stop  offset="1" style="stop-color:#649CD9"/>
			</linearGradient>
			<path style="fill:url(#SVGID_6_);" d="M148.966,179.866c-0.771,0-1.543-0.294-2.132-0.883l-37.208-37.213
				c-1.177-1.177-1.177-3.082,0-4.26c1.177-1.177,3.086-1.177,4.264,0l37.208,37.211c1.177,1.177,1.177,3.084,0,4.262
				C150.509,179.572,149.736,179.866,148.966,179.866z"/>
		</g>
		<g>
			<linearGradient id="SVGID_7_" gradientUnits="userSpaceOnUse" x1="223.5039" y1="63.2051" x2="223.5039" y2="202.7711">
				<stop  offset="0" style="stop-color:#916CBF"/>
				<stop  offset="1" style="stop-color:#649CD9"/>
			</linearGradient>
			<path style="fill:url(#SVGID_7_);" d="M272.735,178.609c-0.772,0-1.544-0.294-2.133-0.883l-98.46-98.457
				c-1.177-1.178-1.177-3.084,0-4.262c1.177-1.177,3.086-1.177,4.265,0l98.458,98.457c1.177,1.177,1.177,3.084,0,4.262
				C274.276,178.315,273.505,178.609,272.735,178.609z"/>
		</g>
		<g>
			<linearGradient id="SVGID_8_" gradientUnits="userSpaceOnUse" x1="134.8296" y1="63.208" x2="134.8296" y2="202.7681">
				<stop  offset="0" style="stop-color:#916CBF"/>
				<stop  offset="1" style="stop-color:#649CD9"/>
			</linearGradient>
			<path style="fill:url(#SVGID_8_);" d="M142.27,141.909c-0.771,0-1.543-0.294-2.132-0.883l-14.88-14.88
				c-1.177-1.178-1.177-3.084,0-4.262c1.177-1.177,3.084-1.177,4.262,0l14.882,14.882c1.178,1.177,1.178,3.083,0,4.259
				C143.813,141.615,143.04,141.909,142.27,141.909z"/>
		</g>
		<g>
			<linearGradient id="SVGID_9_" gradientUnits="userSpaceOnUse" x1="166.083" y1="63.2056" x2="166.083" y2="202.7686">
				<stop  offset="0" style="stop-color:#916CBF"/>
				<stop  offset="1" style="stop-color:#649CD9"/>
			</linearGradient>
			<path style="fill:url(#SVGID_9_);" d="M173.524,110.661c-0.772,0-1.541-0.295-2.13-0.883l-14.882-14.886
				c-1.177-1.177-1.177-3.084,0-4.262s3.084-1.177,4.262,0l14.88,14.888c1.178,1.177,1.178,3.082,0,4.26
				C175.065,110.366,174.295,110.661,173.524,110.661z"/>
		</g>
		<g>
			<linearGradient id="SVGID_10_" gradientUnits="userSpaceOnUse" x1="204.625" y1="63.2046" x2="204.625" y2="202.7709">
				<stop  offset="0" style="stop-color:#916CBF"/>
				<stop  offset="1" style="stop-color:#649CD9"/>
			</linearGradient>
			<path style="fill:url(#SVGID_10_);" d="M213.396,181.787c-0.77,0-1.542-0.294-2.132-0.883l-17.541-17.545
				c-1.177-1.178-1.177-3.086,0-4.264c1.178-1.178,3.086-1.178,4.265,0l17.541,17.547c1.177,1.177,1.177,3.084,0,4.262
				C214.939,181.493,214.167,181.787,213.396,181.787z"/>
		</g>
		<g>
			<linearGradient id="SVGID_11_" gradientUnits="userSpaceOnUse" x1="89.1548" y1="63.1973" x2="89.1548" y2="202.7829">
				<stop  offset="0" style="stop-color:#916CBF"/>
				<stop  offset="1" style="stop-color:#649CD9"/>
			</linearGradient>
			<path style="fill:url(#SVGID_11_);" d="M83.299,128.125c-0.677,0-1.357-0.228-1.917-0.691c-1.284-1.061-1.466-2.96-0.405-4.244
				l11.71-14.181c1.061-1.28,2.959-1.461,4.241-0.404c1.284,1.063,1.465,2.959,0.404,4.243l-11.71,14.181
				C85.028,127.75,84.166,128.125,83.299,128.125z"/>
		</g>
		<g>
			<linearGradient id="SVGID_12_" gradientUnits="userSpaceOnUse" x1="181.2793" y1="63.2046" x2="181.2793" y2="202.7709">
				<stop  offset="0" style="stop-color:#916CBF"/>
				<stop  offset="1" style="stop-color:#649CD9"/>
			</linearGradient>
			<path style="fill:url(#SVGID_12_);" d="M189.157,95.033c-1.067,0-2.098-0.564-2.646-1.562c-0.801-1.459-0.27-3.295,1.192-4.096
				c5.455-2.993,9.415-7.931,11.157-13.906c1.741-5.974,1.049-12.27-1.95-17.727c-2.992-5.454-7.931-9.415-13.902-11.156
				c-5.978-1.744-12.269-1.051-17.722,1.946c-1.277,0.701-2.5,1.528-3.634,2.461c-1.288,1.059-3.184,0.875-4.244-0.413
				c-1.056-1.288-0.871-3.187,0.413-4.243c1.427-1.171,2.96-2.209,4.562-3.09c6.864-3.77,14.791-4.638,22.308-2.449
				c7.522,2.191,13.735,7.179,17.504,14.042c3.772,6.87,4.645,14.794,2.453,22.316c-2.19,7.52-7.179,13.735-14.048,17.506
				C190.142,94.912,189.645,95.033,189.157,95.033z"/>
		</g>
		<g>
			<linearGradient id="SVGID_13_" gradientUnits="userSpaceOnUse" x1="153.4712" y1="63.2051" x2="153.4712" y2="202.7824">
				<stop  offset="0" style="stop-color:#916CBF"/>
				<stop  offset="1" style="stop-color:#649CD9"/>
			</linearGradient>
			<path style="fill:url(#SVGID_13_);" d="M147.206,62.042c-0.867,0-1.726-0.374-2.322-1.091c-1.063-1.284-0.883-3.185,0.401-4.245
				l12.534-10.363c1.279-1.059,3.18-0.877,4.243,0.401c1.059,1.284,0.879,3.185-0.404,4.246l-12.53,10.363
				C148.563,61.816,147.885,62.042,147.206,62.042z"/>
		</g>
	</g>
</g>
</svg>
